<svg width="450" height="250" viewBox="0 0 450 250" xmlns="http://www.w3.org/2000/svg">
  <defs>
    <style>
      text { font-family: "Times New Roman", serif; font-weight: bold; font-size: 20px; fill: black; }
      .wire { stroke: black; stroke-width: 3; fill: none; }
      .component-stroke { stroke: black; stroke-width: 3; fill: white; }
      .thick-plate { stroke: black; stroke-width: 6; }
      .thin-plate { stroke: black; stroke-width: 3; }
      .junction-dot { fill: black; }
    </style>
  </defs>

  <rect width="100%" height="100%" fill="white" />

  <line x1="100" y1="115" x2="100" y2="180" class="wire" /> <line x1="100" y1="95" x2="100" y2="50" class="wire" />  <line x1="100" y1="50" x2="160" y2="50" class="wire" /> <line x1="260" y1="50" x2="330" y2="50" class="wire" /> <line x1="330" y1="50" x2="400" y2="50" class="wire" /> <line x1="100" y1="180" x2="330" y2="180" class="wire" /> <line x1="330" y1="180" x2="400" y2="180" class="wire" /> <line x1="330" y1="50" x2="330" y2="80" class="wire" />
  <line x1="330" y1="150" x2="330" y2="180" class="wire" />

  <line x1="400" y1="50" x2="400" y2="90" class="wire" />
  <line x1="400" y1="140" x2="400" y2="180" class="wire" />


  <line x1="85" y1="95" x2="115" y2="95" class="thick-plate" />
  <line x1="75" y1="115" x2="125" y2="115" class="thin-plate" />
  
  <rect x="160" y="40" width="100" height="20" class="component-stroke" />

  <rect x="320" y="80" width="20" height="70" class="component-stroke" />

  <circle cx="400" cy="115" r="25" class="component-stroke" />
  <text x="400" y="122" text-anchor="middle" font-size="22">V</text>

  <circle cx="330" cy="50" r="4" class="junction-dot" />
  <circle cx="330" cy="180" r="4" class="junction-dot" />


  <text x="30" y="110">2 V</text>

  <text x="210" y="30" text-anchor="middle">10 &#937;</text>

  <text x="305" y="115" text-anchor="end">10 &#937;</text>

</svg>