<svg width="700" height="500" viewBox="0 0 700 500" xmlns="http://www.w3.org/2000/svg">
  <rect x="0" y="0" width="700" height="500" fill="white" />

  <g transform="translate(70, 450)">
    <g stroke="#e0e0e0" stroke-width="1">
      <line x1="0" y1="-8" x2="600" y2="-8" />
      <line x1="0" y1="-16" x2="600" y2="-16" />
      <line x1="0" y1="-24" x2="600" y2="-24" />
      <line x1="0" y1="-32" x2="600" y2="-32" />
      <line x1="0" y1="-48" x2="600" y2="-48" />
      <line x1="0" y1="-56" x2="600" y2="-56" />
      <line x1="0" y1="-64" x2="600" y2="-64" />
      <line x1="0" y1="-72" x2="600" y2="-72" />
      <line x1="0" y1="-88" x2="600" y2="-88" />
      <line x1="0" y1="-96" x2="600" y2="-96" />
      <line x1="0" y1="-104" x2="600" y2="-104" />
      <line x1="0" y1="-112" x2="600" y2="-112" />
      <line x1="0" y1="-128" x2="600" y2="-128" />
      <line x1="0" y1="-136" x2="600" y2="-136" />
      <line x1="0" y1="-144" x2="600" y2="-144" />
      <line x1="0" y1="-152" x2="600" y2="-152" />
      <line x1="0" y1="-168" x2="600" y2="-168" />
      <line x1="0" y1="-176" x2="600" y2="-176" />
      <line x1="0" y1="-184" x2="600" y2="-184" />
      <line x1="0" y1="-192" x2="600" y2="-192" />
      <line x1="0" y1="-208" x2="600" y2="-208" />
      <line x1="0" y1="-216" x2="600" y2="-216" />
      <line x1="0" y1="-224" x2="600" y2="-224" />
      <line x1="0" y1="-232" x2="600" y2="-232" />
      <line x1="0" y1="-248" x2="600" y2="-248" />
      <line x1="0" y1="-256" x2="600" y2="-256" />
      <line x1="0" y1="-264" x2="600" y2="-264" />
      <line x1="0" y1="-272" x2="600" y2="-272" />
      <line x1="0" y1="-288" x2="600" y2="-288" />
      <line x1="0" y1="-296" x2="600" y2="-296" />
      <line x1="0" y1="-304" x2="600" y2="-304" />
      <line x1="0" y1="-312" x2="600" y2="-312" />
      <line x1="0" y1="-328" x2="600" y2="-328" />
      <line x1="0" y1="-336" x2="600" y2="-336" />
      <line x1="0" y1="-344" x2="600" y2="-344" />
      <line x1="0" y1="-352" x2="600" y2="-352" />
    </g>

    <g stroke="black" stroke-width="1">
      <line x1="0" y1="0" x2="600" y2="0" />
      <line x1="0" y1="-40" x2="600" y2="-40" />
      <line x1="0" y1="-80" x2="600" y2="-80" />
      <line x1="0" y1="-120" x2="600" y2="-120" />
      <line x1="0" y1="-160" x2="600" y2="-160" />
      <line x1="0" y1="-200" x2="600" y2="-200" />
      <line x1="0" y1="-240" x2="600" y2="-240" />
      <line x1="0" y1="-280" x2="600" y2="-280" />
      <line x1="0" y1="-320" x2="600" y2="-320" />
      <line x1="0" y1="-360" x2="600" y2="-360" />
    </g>

    <g stroke="black" stroke-width="1">
      <line x1="0" y1="0" x2="0" y2="-360" />
      <line x1="100" y1="0" x2="100" y2="-360" />
      <line x1="200" y1="0" x2="200" y2="-360" />
      <line x1="300" y1="0" x2="300" y2="-360" />
      <line x1="400" y1="0" x2="400" y2="-360" />
      <line x1="500" y1="0" x2="500" y2="-360" />
      <line x1="600" y1="0" x2="600" y2="-360" />
    </g>

    <rect x="0" y="-360" width="600" height="360" fill="none" stroke="black" stroke-width="2" />

    <g font-family="Arial" font-size="14" text-anchor="middle">
      <text x="0" y="20">0</text>
      <text x="100" y="20">100</text>
      <text x="200" y="20">200</text>
      <text x="300" y="20">300</text>
      <text x="400" y="20">400</text>
      <text x="500" y="20">500</text>
      <text x="600" y="20">600</text>
    </g>

    <g font-family="Arial" font-size="14" text-anchor="end">
      <text x="-10" y="5">10</text>
      <text x="-10" y="-35">20</text>
      <text x="-10" y="-75">30</text>
      <text x="-10" y="-115">40</text>
      <text x="-10" y="-155">50</text>
      <text x="-10" y="-195">60</text>
      <text x="-10" y="-235">70</text>
      <text x="-10" y="-275">80</text>
      <text x="-10" y="-315">90</text>
    </g>

    <text x="300" y="45" font-family="Arial" font-size="14" text-anchor="middle">Laikas, s</text>
    <text x="-45" y="-180" font-family="Arial" font-size="14" text-anchor="middle" transform="rotate(-90 -45 -180)">Temperatūra, °C</text>

    <polyline points="0,-40 100,-152 500,-152 600,-288" fill="none" stroke="#4a86e8" stroke-width="2" />

    <g font-family="Times New Roman, serif" font-size="40" fill="black">
      <text x="60" y="-60" text-anchor="middle">A</text>
      <text x="300" y="-115" text-anchor="middle">B</text>
      <text x="530" y="-210" text-anchor="middle">C</text>
    </g>
  </g>
</svg>