<svg xmlns="http://www.w3.org/2000/svg" viewBox="-20 -20 350 250">
  <!-- Axes -->
  <defs>
    <marker id="arrow" markerWidth="10" markerHeight="10" refX="9" refY="3" orient="auto" markerUnits="strokeWidth">
      <path d="M0,0 L0,6 L9,3 z" fill="black" />
    </marker>
  </defs>
  
  <!-- Grid -->
  <g stroke="#ddd" stroke-width="1">
    <!-- Vertical lines -->
    <line x1="40" y1="20" x2="40" y2="220" />
    <line x1="60" y1="20" x2="60" y2="220" />
    <line x1="80" y1="20" x2="80" y2="220" />
    <line x1="100" y1="20" x2="100" y2="220" />
    <line x1="120" y1="20" x2="120" y2="220" />
    <line x1="140" y1="20" x2="140" y2="220" />
    <line x1="160" y1="20" x2="160" y2="220" />
    <line x1="180" y1="20" x2="180" y2="220" />
    <line x1="200" y1="20" x2="200" y2="220" />
    <line x1="220" y1="20" x2="220" y2="220" />
    <line x1="240" y1="20" x2="240" y2="220" />
    <line x1="260" y1="20" x2="260" y2="220" />
    <line x1="280" y1="20" x2="280" y2="220" />
    
    <!-- Horizontal lines -->
    <line x1="40" y1="20" x2="280" y2="20" />
    <line x1="40" y1="40" x2="280" y2="40" />
    <line x1="40" y1="60" x2="280" y2="60" />
    <line x1="40" y1="80" x2="280" y2="80" />
    <line x1="40" y1="100" x2="280" y2="100" />
    <line x1="40" y1="120" x2="280" y2="120" />
    <line x1="40" y1="140" x2="280" y2="140" />
    <line x1="40" y1="160" x2="280" y2="160" />
    <line x1="40" y1="180" x2="280" y2="180" />
    <line x1="40" y1="200" x2="280" y2="200" />
  </g>

  <!-- Axis Lines -->
  <line x1="40" y1="220" x2="40" y2="10" stroke="black" stroke-width="2" marker-end="url(#arrow)" />
  <line x1="40" y1="220" x2="300" y2="220" stroke="black" stroke-width="2" marker-end="url(#arrow)" />

  <!-- Labels -->
  <text x="25" y="20" font-family="Arial" font-size="14" text-anchor="end">p, 10⁵ Pa</text>
  <text x="300" y="240" font-family="Arial" font-size="14" text-anchor="middle">V, m³</text>
  
  <text x="30" y="225" font-family="Arial" font-size="12" text-anchor="middle">0</text>
  <text x="80" y="235" font-family="Arial" font-size="12" text-anchor="middle">1</text>
  <text x="120" y="235" font-family="Arial" font-size="12" text-anchor="middle">2</text>
  <text x="160" y="235" font-family="Arial" font-size="12" text-anchor="middle">3</text>
  <text x="200" y="235" font-family="Arial" font-size="12" text-anchor="middle">4</text>
  <text x="240" y="235" font-family="Arial" font-size="12" text-anchor="middle">5</text>
  <text x="280" y="235" font-family="Arial" font-size="12" text-anchor="middle">6</text>

  <text x="30" y="180" font-family="Arial" font-size="12" text-anchor="end">1</text>
  <text x="30" y="140" font-family="Arial" font-size="12" text-anchor="end">2</text>
  <text x="30" y="100" font-family="Arial" font-size="12" text-anchor="end">3</text>
  <text x="30" y="60" font-family="Arial" font-size="12" text-anchor="end">4</text>
  <text x="30" y="20" font-family="Arial" font-size="12" text-anchor="end">5</text>

  <!-- Triangle P(2,1) -> O(5,4) -> R(5,1) -> P -->
  <!-- Coordinates mapping:
       x: 40 + val * 40
       y: 220 - val * 40
       P(2,1): x=120, y=180
       O(5,4): x=240, y=60
       R(5,1): x=240, y=180
  -->
  
  <path d="M120,180 L240,60 L240,180 Z" fill="none" stroke="black" stroke-width="2" />
  
  <!-- Arrows on path -->
  <!-- P->O -->
  <path d="M175,125 L185,115" stroke="black" stroke-width="2" marker-end="url(#arrow)" />
  <!-- O->R -->
  <path d="M240,110 L240,130" stroke="black" stroke-width="2" marker-end="url(#arrow)" />
  <!-- R->P -->
  <path d="M190,180 L170,180" stroke="black" stroke-width="2" marker-end="url(#arrow)" />

  <!-- Point Labels -->
  <text x="110" y="185" font-family="Arial" font-size="16" font-weight="bold">P</text>
  <text x="250" y="60" font-family="Arial" font-size="16" font-weight="bold">O</text>
  <text x="250" y="185" font-family="Arial" font-size="16" font-weight="bold">R</text>

</svg>
