<svg width="500" height="300" viewBox="0 0 500 300" xmlns="http://www.w3.org/2000/svg">
  <rect x="0" y="0" width="500" height="300" fill="white"/>

  <rect x="50" y="50" width="400" height="200" fill="none" stroke="black" stroke-width="3"/>
  
  <line x1="450" y1="130" x2="450" y2="170" stroke="white" stroke-width="5"/>

  <text x="460" y="155" font-family="serif" font-size="24" fill="black">A</text>

  <line x1="50" y1="50" x2="450" y2="50" stroke="black" stroke-width="3"/>
  <g font-family="monospace" font-size="20" fill="black">
    <text x="60" y="40">+</text><text x="85" y="40">+</text><text x="110" y="40">+</text>
    <text x="135" y="40">+</text><text x="160" y="40">+</text><text x="185" y="40">+</text>
    <text x="210" y="40">+</text><text x="235" y="40">+</text><text x="260" y="40">+</text>
    <text x="285" y="40">+</text><text x="310" y="40">+</text><text x="335" y="40">+</text>
    <text x="360" y="40">+</text><text x="385" y="40">+</text><text x="410" y="40">+</text>
    <text x="435" y="40">+</text>
  </g>

  <line x1="50" y1="250" x2="450" y2="250" stroke="black" stroke-width="3"/>
  <g font-family="monospace" font-size="20" fill="black">
    <text x="60" y="275">-</text><text x="85" y="275">-</text><text x="110" y="275">-</text>
    <text x="135" y="275">-</text><text x="160" y="275">-</text><text x="185" y="275">-</text>
    <text x="210" y="275">-</text><text x="235" y="275">-</text><text x="260" y="275">-</text>
    <text x="285" y="275">-</text><text x="310" y="275">-</text><text x="335" y="275">-</text>
    <text x="360" y="275">-</text><text x="385" y="275">-</text><text x="410" y="275">-</text>
    <text x="435" y="275">-</text>
  </g>

  <circle cx="80" cy="150" r="8" fill="black"/>
  <text x="70" y="125" font-family="serif" font-size="24" fill="black">q</text>

  <line x1="95" y1="150" x2="180" y2="150" stroke="black" stroke-width="2"/>
  <polygon points="180,150 170,145 170,155" fill="black"/>
  <text x="130" y="135" font-family="serif" font-size="24" fill="black">v</text>
  <line x1="130" y1="118" x2="145" y2="118" stroke="black" stroke-width="1"/>
  <polygon points="145,118 140,115 140,121" fill="black"/>

  <g transform="translate(380, 200)">
    <circle cx="0" cy="0" r="15" fill="none" stroke="black" stroke-width="2"/>
    <line x1="-10" y1="-10" x2="10" y2="10" stroke="black" stroke-width="2"/>
    <line x1="-10" y1="10" x2="10" y2="-10" stroke="black" stroke-width="2"/>
  </g>
  <text x="335" y="210" font-family="serif" font-size="24" fill="black">B</text>
  <line x1="335" y1="190" x2="350" y2="190" stroke="black" stroke-width="1"/>
  <polygon points="350,190 345,187 345,193" fill="black"/>

</svg>