<svg width="400" height="300" xmlns="http://www.w3.org/2000/svg">
    <rect width="100%" height="100%" fill="#f8f9fa" />
  
    <line x1="50" y1="250" x2="350" y2="250" stroke="black" stroke-width="2" />
  <line x1="50" y1="250" x2="50" y2="50" stroke="black" stroke-width="2" />
  
    <line x1="50" y1="200" x2="350" y2="200" stroke="#ddd" stroke-width="1" />
  <line x1="50" y1="150" x2="350" y2="150" stroke="#ddd" stroke-width="1" />
  <line x1="50" y1="100" x2="350" y2="100" stroke="#ddd" stroke-width="1" />
  <line x1="50" y1="50" x2="350" y2="50" stroke="#ddd" stroke-width="1" />
  
  <line x1="100" y1="250" x2="100" y2="50" stroke="#ddd" stroke-width="1" />
  <line x1="150" y1="250" x2="150" y2="50" stroke="#ddd" stroke-width="1" />
  <line x1="200" y1="250" x2="200" y2="50" stroke="#ddd" stroke-width="1" />
  <line x1="250" y1="250" x2="250" y2="50" stroke="#ddd" stroke-width="1" />
  <line x1="300" y1="250" x2="300" y2="50" stroke="#ddd" stroke-width="1" />
  
      <text x="200" y="290" font-family="Arial" font-size="14" text-anchor="middle">t (s)</text>
    <text x="10" y="150" font-family="Arial" font-size="14" transform="rotate(-90 10 150)" text-anchor="middle">s (m)</text>
  
    <text x="100" y="270" font-family="Arial" font-size="12" text-anchor="middle">1</text>
  <text x="150" y="270" font-family="Arial" font-size="12" text-anchor="middle">2</text>
  <text x="200" y="270" font-family="Arial" font-size="12" text-anchor="middle">3</text>
  <text x="250" y="270" font-family="Arial" font-size="12" text-anchor="middle">4</text>
  <text x="300" y="270" font-family="Arial" font-size="12" text-anchor="middle">5</text>
  
    <text x="40" y="205" font-family="Arial" font-size="12" text-anchor="end">2</text>
  <text x="40" y="155" font-family="Arial" font-size="12" text-anchor="end">4</text>
  <text x="40" y="105" font-family="Arial" font-size="12" text-anchor="end">6</text>
  <text x="40" y="55" font-family="Arial" font-size="12" text-anchor="end">8</text>
  
    <line x1="50" y1="250" x2="250" y2="50" stroke="blue" stroke-width="3" />
  
    <circle cx="250" cy="50" r="4" fill="red" />
</svg>